<svg width="18" height="18" viewBox="0 0 18 18" fill="none" xmlns="http://www.w3.org/2000/svg">
<path d="M10.7235 14.0745L9.07352 16.4828C8.79018 16.8911 8.12352 16.7078 8.12352 16.2161L8.11519 11.5161C8.11519 10.9745 7.65686 10.5411 7.09019 10.5328L3.73185 10.4911C3.32351 10.4828 3.08185 10.0578 3.30685 9.73281L4.66519 7.75781" stroke="#3E4045" stroke-width="1.5" stroke-linecap="round" stroke-linejoin="round"/>
<path d="M6.07422 5.68437L8.92422 1.5177C9.20755 1.10937 9.87422 1.29271 9.87422 1.78438L9.88255 6.48439C9.88255 7.02606 10.3409 7.45938 10.9075 7.46772L14.2659 7.50937C14.6742 7.51771 14.9159 7.94271 14.6909 8.26771L12.0742 12.0844" stroke="#3E4045" stroke-width="1.5" stroke-linecap="round" stroke-linejoin="round"/>
<path d="M1.29102 1.29297L16.7077 16.7096" stroke="#3E4045" stroke-width="1.5" stroke-linecap="round" stroke-linejoin="round"/>
</svg>
