<svg width="18" height="18" viewBox="0 0 18 18" fill="none" xmlns="http://www.w3.org/2000/svg">
<path fill-rule="evenodd" clip-rule="evenodd" d="M13.1824 0.851027C13.4265 0.606949 13.8222 0.606949 14.0663 0.851027L17.1496 3.93436C17.3937 4.17844 17.3937 4.57416 17.1496 4.81824L4.82463 17.1432C4.70783 17.26 4.54955 17.3259 4.38437 17.3263L1.2927 17.3346C1.12636 17.3351 0.966697 17.2692 0.849074 17.1516C0.731451 17.034 0.66557 16.8743 0.666018 16.708L0.674347 13.6163C0.674792 13.4511 0.740605 13.2928 0.857403 13.176L13.1824 0.851027ZM1.92365 13.8775L1.91771 16.0829L4.12311 16.077L15.8238 4.3763L13.6244 2.17685L1.92365 13.8775Z" fill="#F0F0F0"/>
<path fill-rule="evenodd" clip-rule="evenodd" d="M11.3491 3.66743C11.5932 3.42336 11.9889 3.42336 12.233 3.66743L14.3329 5.76742C14.577 6.0115 14.577 6.40723 14.3329 6.65131C14.0889 6.89539 13.6931 6.89539 13.4491 6.65131L11.3491 4.55132C11.105 4.30724 11.105 3.91151 11.3491 3.66743Z" fill="#F0F0F0"/>
</svg>
