<svg width="195" height="97" viewBox="0 0 195 97" fill="none" xmlns="http://www.w3.org/2000/svg">
<path d="M16.0855 84.7685L20.0699 86.0716C19.4591 88.3626 18.441 90.0666 17.0157 91.1835C15.5996 92.2908 13.7995 92.8445 11.6152 92.8445C8.91271 92.8445 6.69145 91.8947 4.95147 89.995C3.21148 88.0858 2.34149 85.4797 2.34149 82.1768C2.34149 78.6829 3.21611 75.9718 4.96535 74.0435C6.71459 72.1056 9.01452 71.1367 11.8651 71.1367C14.3548 71.1367 16.3771 71.8956 17.9319 73.4135C18.8575 74.3108 19.5516 75.5995 20.0144 77.2796L15.9467 78.282C15.7061 77.1937 15.2016 76.3346 14.4335 75.7045C13.6745 75.0745 12.749 74.7595 11.6569 74.7595C10.1483 74.7595 8.92197 75.3179 7.97793 76.4348C7.04315 77.5517 6.57576 79.3607 6.57576 81.8617C6.57576 84.5156 7.03853 86.4057 7.96405 87.5321C8.88957 88.6586 10.0928 89.2218 11.5736 89.2218C12.6657 89.2218 13.6051 88.8638 14.3918 88.1478C15.1785 87.4319 15.7431 86.3055 16.0855 84.7685Z" fill="#1A87BC"/>
<path d="M23.5545 92.4865V71.4947H29.7046L33.3974 85.8138L37.0486 71.4947H43.2126V92.4865H39.3948V75.9623L35.3549 92.4865H31.3983L27.3723 75.9623V92.4865H23.5545Z" fill="#1A87BC"/>
<path d="M60.3163 84.7685L64.3007 86.0716C63.6899 88.3626 62.6718 90.0666 61.2465 91.1835C59.8304 92.2908 58.0303 92.8445 55.846 92.8445C53.1435 92.8445 50.9222 91.8947 49.1823 89.995C47.4423 88.0858 46.5723 85.4797 46.5723 82.1768C46.5723 78.6829 47.4469 75.9718 49.1961 74.0435C50.9454 72.1056 53.2453 71.1367 56.0959 71.1367C58.5856 71.1367 60.6079 71.8956 62.1627 73.4135C63.0883 74.3108 63.7824 75.5995 64.2452 77.2796L60.1775 78.282C59.9369 77.1937 59.4324 76.3346 58.6643 75.7045C57.9053 75.0745 56.9798 74.7595 55.8877 74.7595C54.3791 74.7595 53.1528 75.3179 52.2087 76.4348C51.2739 77.5517 50.8066 79.3607 50.8066 81.8617C50.8066 84.5156 51.2693 86.4057 52.1948 87.5321C53.1204 88.6586 54.3235 89.2218 55.8044 89.2218C56.8965 89.2218 57.8359 88.8638 58.6226 88.1478C59.4093 87.4319 59.9739 86.3055 60.3163 84.7685Z" fill="#1A87BC"/>
<path d="M85.2222 84.7685V81.2317H94.0794V89.5941C93.2187 90.4532 91.9692 91.2121 90.3311 91.8708C88.7021 92.52 87.0501 92.8445 85.3749 92.8445C83.2462 92.8445 81.3905 92.3863 79.8079 91.4699C78.2252 90.5439 77.0359 89.2266 76.24 87.5178C75.444 85.7995 75.046 83.9332 75.046 81.919C75.046 79.733 75.4903 77.7903 76.3788 76.0911C77.2673 74.3919 78.5676 73.0889 80.2799 72.182C81.5849 71.4852 83.2092 71.1367 85.1528 71.1367C87.6794 71.1367 89.6508 71.6856 91.0669 72.7834C92.4922 73.8717 93.4084 75.38 93.8157 77.3083L89.7341 78.0958C89.4472 77.0648 88.9058 76.2534 88.1098 75.6616C87.3231 75.0602 86.3374 74.7595 85.1528 74.7595C83.3572 74.7595 81.9273 75.3465 80.8629 76.5207C79.8079 77.6949 79.2803 79.437 79.2803 81.7472C79.2803 84.2387 79.8171 86.1098 80.8907 87.3603C81.9643 88.6013 83.3711 89.2218 85.1111 89.2218C85.9718 89.2218 86.8326 89.05 87.6933 88.7063C88.5633 88.3531 89.3084 87.9283 89.9285 87.4319V84.7685H85.2222Z" fill="#1A87BC"/>
<path d="M97.9944 92.4865V71.6665H102.104V88.9497H112.322V92.4865H97.9944Z" fill="#1A87BC"/>
<path d="M114.432 82.1195C114.432 79.9812 114.742 78.1865 115.362 76.7355C115.825 75.6663 116.454 74.707 117.25 73.8574C118.055 73.0078 118.934 72.3777 119.888 71.9672C121.156 71.4136 122.618 71.1367 124.275 71.1367C127.273 71.1367 129.67 72.0961 131.466 74.0149C133.271 75.9336 134.173 78.6018 134.173 82.0193C134.173 85.4081 133.28 88.0619 131.494 89.9807C129.707 91.8899 127.32 92.8445 124.33 92.8445C121.304 92.8445 118.897 91.8947 117.111 89.995C115.325 88.0858 114.432 85.4606 114.432 82.1195ZM118.666 81.9763C118.666 84.3533 119.198 86.1575 120.263 87.3889C121.327 88.6108 122.678 89.2218 124.316 89.2218C125.954 89.2218 127.296 88.6156 128.342 87.4033C129.397 86.1814 129.925 84.3533 129.925 81.919C129.925 79.5134 129.411 77.7187 128.384 76.535C127.366 75.3513 126.01 74.7595 124.316 74.7595C122.623 74.7595 121.257 75.3609 120.221 76.5637C119.184 77.7569 118.666 79.5611 118.666 81.9763Z" fill="#1A87BC"/>
<path d="M137.408 71.4947H145.543C147.154 71.4947 148.352 71.5663 149.139 71.7095C149.935 71.8431 150.643 72.1295 151.263 72.5686C151.892 73.0078 152.415 73.5948 152.832 74.3299C153.248 75.0554 153.456 75.8716 153.456 76.7785C153.456 77.7617 153.197 78.6638 152.679 79.4848C152.17 80.3057 151.476 80.9215 150.597 81.3319C151.837 81.7042 152.79 82.3391 153.456 83.2364C154.123 84.1337 154.456 85.1886 154.456 86.4009C154.456 87.3555 154.238 88.2863 153.803 89.1931C153.378 90.0905 152.79 90.8112 152.04 91.3553C151.3 91.8899 150.384 92.2193 149.292 92.3434C148.607 92.4197 146.955 92.4675 144.335 92.4865H137.408V71.4947ZM141.517 74.9886V79.8428H144.21C145.812 79.8428 146.807 79.8189 147.195 79.7712C147.899 79.6852 148.449 79.437 148.847 79.0266C149.255 78.6065 149.458 78.0576 149.458 77.3799C149.458 76.7307 149.282 76.2057 148.931 75.8048C148.588 75.3943 148.075 75.1461 147.39 75.0602C146.982 75.0124 145.812 74.9886 143.877 74.9886H141.517ZM141.517 83.3366V88.9497H145.321C146.802 88.9497 147.741 88.9068 148.139 88.8208C148.75 88.7063 149.245 88.4295 149.625 87.9903C150.013 87.5417 150.208 86.945 150.208 86.2004C150.208 85.5704 150.06 85.0358 149.764 84.5967C149.467 84.1576 149.037 83.8378 148.472 83.6373C147.917 83.4369 146.705 83.3366 144.835 83.3366H141.517Z" fill="#1A87BC"/>
<path d="M176.294 92.4865H171.823L170.046 87.7183H161.911L160.231 92.4865H155.872L163.799 71.4947H168.144L176.294 92.4865ZM168.728 84.1814L165.923 76.3918L163.174 84.1814H168.728Z" fill="#1A87BC"/>
<path d="M178.598 92.4865V71.6665H182.708V88.9497H192.925V92.4865H178.598Z" fill="#1A87BC"/>
<path d="M78.5929 48.8202C78.5617 49.2213 78.436 49.6088 78.2263 49.95C78.0166 50.2912 77.7291 50.576 77.3881 50.7803C75.7324 51.6167 73.9086 52.0519 72.0597 52.0517C70.3233 52.0545 68.6065 51.6785 67.0253 50.949C65.4442 50.2195 64.0354 49.1535 62.8943 47.823C61.7531 46.4925 60.9061 44.9286 60.4106 43.2368C59.915 41.545 59.7823 39.7647 60.0216 38.0164C60.2608 36.268 60.8664 34.5922 61.7974 33.1021C62.7284 31.6121 63.9631 30.3425 65.4181 29.3792C66.8732 28.4158 68.5146 27.7812 70.2316 27.5181C71.9486 27.255 73.7012 27.3696 75.3708 27.8542V21.1037C72.83 20.6421 70.2225 20.7227 67.714 21.3406C65.2054 21.9584 62.8508 23.1 60.7995 24.6927C58.7483 26.2854 57.0453 28.2944 55.7989 30.5921C54.5525 32.8898 53.7898 35.426 53.5593 38.0395C53.3288 40.6529 53.6356 43.2866 54.4601 45.773C55.2846 48.2595 56.6089 50.5445 58.3487 52.4827C60.0885 54.4209 62.2059 55.97 64.5663 57.0317C66.9267 58.0933 69.4786 58.6442 72.0597 58.6494C76.2716 58.6648 80.3577 57.1911 83.6182 54.4805C83.8362 54.2638 84.0278 54.0213 84.1888 53.7581L84.311 53.5665C84.3874 53.4474 84.5403 53.1625 84.5657 53.1263C84.7037 52.8236 84.812 52.5079 84.8892 52.1837C84.8874 52.1735 84.8874 52.163 84.8892 52.1527C84.8919 52.1127 84.9004 52.0735 84.9147 52.0362C84.9274 51.9973 84.9351 51.9015 84.9503 51.8342C84.9656 51.7228 84.9809 51.6141 84.9962 51.5027C85.0115 51.3914 85.0268 51.1169 85.0369 51.0211V44.0661L78.5878 34.6279L78.5929 48.8202Z" fill="#1A87BC"/>
<path d="M115.823 21.9844C113.136 23.09 110.797 24.92 109.058 27.277C109.054 27.2768 109.05 27.2755 109.047 27.2732C109.044 27.2709 109.042 27.2677 109.04 27.2641L97.2066 44.5739L85.3781 27.2667C85.3728 27.2719 85.3668 27.2762 85.3603 27.2796C83.6199 24.9225 81.2801 23.0926 78.5927 21.987V28.9031L97.2117 56.1431L115.823 28.9031V21.9844Z" fill="#1A87BC"/>
<path d="M122.362 20.7969C121.251 20.7974 120.143 20.9014 119.051 21.1076V27.858C120.128 27.5472 121.242 27.3877 122.362 27.3842C124.19 27.3817 125.996 27.7992 127.643 28.6056C129.29 29.412 130.737 30.5864 131.875 32.0411C133.013 33.4958 133.813 35.1931 134.215 37.0063C134.618 38.8194 134.612 40.7015 134.198 42.512C133.784 44.3224 132.973 46.0144 131.825 47.4615C130.678 48.9086 129.224 50.0734 127.571 50.8688C125.919 51.6642 124.111 52.0698 122.283 52.0551C120.454 52.0405 118.653 51.606 117.013 50.7842C116.674 50.5788 116.387 50.2936 116.179 49.9525C115.97 49.6114 115.845 49.2245 115.813 48.824V34.6318L109.375 44.0751V51.0146C109.38 51.1767 109.394 51.3384 109.418 51.4988C109.428 51.6109 109.443 51.7224 109.464 51.8328C109.471 51.9 109.483 51.9666 109.499 52.0322C109.502 52.0725 109.509 52.1125 109.52 52.1513C109.519 52.1599 109.519 52.1686 109.52 52.1772C109.594 52.5016 109.7 52.8175 109.838 53.1197C109.856 53.1586 110.014 53.4408 110.093 53.5599L110.212 53.7515C110.377 54.0132 110.568 54.2563 110.783 54.4766C114.047 57.1845 118.134 58.6578 122.347 58.6454C127.283 58.6475 132.019 56.6558 135.511 53.1085C139.003 49.5612 140.966 44.7489 140.968 39.7302C140.97 34.7115 139.011 29.8976 135.522 26.3474C132.032 22.7972 127.299 20.8015 122.362 20.7995V20.7995" fill="#1A87BC"/>
<path d="M85.381 21.5638C85.1981 20.7036 85.105 19.8261 85.1033 18.946C85.0803 17.3258 85.3722 15.7169 85.9622 14.2116C86.5523 12.7063 87.4289 11.3343 88.5418 10.1743C89.6547 9.0143 90.982 8.08911 92.4475 7.45183C93.913 6.81455 95.4878 6.47772 97.0817 6.46068C98.6755 6.44363 100.257 6.7467 101.735 7.3525C103.214 7.9583 104.56 8.8549 105.696 9.99086C106.833 11.1268 107.738 12.4798 108.359 13.9721C108.98 15.4644 109.305 17.0667 109.316 18.6871V18.946C109.314 19.8261 109.221 20.7036 109.038 21.5638C111.063 20.0616 113.367 18.993 115.811 18.423C115.684 13.493 113.668 8.80834 110.193 5.36707C106.719 1.9258 102.059 0 97.2082 0C92.3572 0 87.6979 1.9258 84.223 5.36707C80.7482 8.80834 78.7327 13.493 78.6058 18.423C81.0487 18.9946 83.3525 20.063 85.3784 21.5638" fill="#1A87BC"/>
</svg>
